<svg xmlns="http://www.w3.org/2000/svg" viewBox="0 0 41.016795 30.3771786">
  <path d="M20.5685613.0236796c5.658284.0000825,11.3191658-.0885868,16.9726165.0767098,1.098736.032126,2.6044239.7894841,3.1452259,1.6828091.7335664,1.2117373.19347,2.5730579-1.1052972,3.6558522-5.6218345,4.6869903-11.1990486,9.4308968-16.682112,14.2789351-1.7000849,1.5031835-2.9449238,1.6236536-4.6877371.0868912C12.7210223,14.9637395,7.155033,10.2059904,1.5302421,5.5217819.1586179,4.3795213-.4488441,2.9851968.3701486,1.6651274.9139166.7886662,2.4717591.1257481,3.5956625.0948738,9.2496816-.0604483,14.9102735.0235971,20.5685613.0236796Z" fill="#353f66"/>
  <path d="M8.1372719,15.54797c2.6341117,2.2481444,5.3272884,4.5768018,8.0538131,6.8657348,3.0783772,2.5843146,5.6329696,2.5721267,8.6807339-.0181522,2.6586918-2.2596133,5.2971236-4.5430627,8.2244197-7.0562962,2.5098422,2.6415351,5.3716209,5.0203024,7.331727,7.9935082.928135,1.4078542.2697907,3.970303.0106087,5.9681899-.0576401.4442826-1.4591753,1.0146981-2.2447246,1.0189935-11.806089.0645866-23.6126702.0313454-35.4190606.0572167-1.7732871.003891-2.5384277-.8072282-2.6778759-2.523083-.2240124-2.7563308.0648747-5.1818281,2.5217269-7.0727756,1.9511054-1.5016882,3.603724-3.391188,5.5186317-5.2333361Z" fill="#353f66"/>
  <path d="M.2835931,8.8436369c1.6987097,1.4357435,3.1225571,2.6391757,4.8082701,4.0639348-1.7249415,1.4672281-3.3277745,2.8305896-4.8082701,4.0898938v-8.1538285Z" fill="#353f66"/>
  <path d="M40.6884026,17.0517238c-1.4995997-1.2804014-3.0493321-2.6036036-4.7664229-4.0697064,1.6247828-1.4064848,3.0361942-2.6282685,4.7664229-4.1260314v8.1957378Z" fill="#353f66"/>
</svg>